<svg width="44" height="44" viewBox="0 0 44 44" fill="none" xmlns="http://www.w3.org/2000/svg">
<path d="M1.07985 21.3983C1.05119 21.3613 1.02391 21.3258 0.998044 21.292C1.02391 21.2583 1.05119 21.2228 1.07985 21.1857C1.36568 20.8161 1.78945 20.2851 2.33642 19.6466C3.43132 18.3685 5.01485 16.6654 6.9689 14.9645C10.9023 11.5407 16.2169 8.23018 22 8.23018C27.7831 8.23018 33.0977 11.5407 37.0311 14.9645C38.9851 16.6654 40.5687 18.3685 41.6636 19.6466C42.2105 20.2851 42.6343 20.8161 42.9201 21.1857C42.9488 21.2228 42.9761 21.2583 43.002 21.292C42.9761 21.3258 42.9488 21.3613 42.9201 21.3983C42.6343 21.768 42.2105 22.299 41.6636 22.9375C40.5687 24.2156 38.9851 25.9186 37.0311 27.6195C33.0977 31.0434 27.7831 34.3539 22 34.3539C16.2169 34.3539 10.9023 31.0434 6.9689 27.6195C5.01485 25.9186 3.43132 24.2156 2.33642 22.9375C1.78945 22.299 1.36568 21.768 1.07985 21.3983Z" stroke="#8F8FA3" stroke-width="1.6"/>
<path d="M22.0012 2.12232e-06L22.0012 8.99882C22.0012 16.1792 16.1804 22 9 22V22" stroke="#8F8FA3" stroke-width="1.6"/>
<path d="M21.9988 44L21.9988 35.0012C21.9988 27.8208 27.8196 22 35 22V22" stroke="#8F8FA3" stroke-width="1.6"/>
<path d="M21.9988 -2.55131e-06L21.9988 8.99882C21.9988 16.1792 27.8196 22 35 22V22" stroke="#8F8FA3" stroke-width="1.6"/>
<path d="M22.0012 44L22.0012 35.0012C22.0012 27.8208 16.1804 22 9 22V22" stroke="#8F8FA3" stroke-width="1.6"/>
</svg>
