<svg width="63" height="112" viewBox="0 0 63 112" fill="none" xmlns="http://www.w3.org/2000/svg">
<g clip-path="url(#clip0_3010_567)">
<path d="M31.4386 0C22.8667 0 15.0168 6.15509 9.28421 16.3039C3.55649 26.4379 0 40.4723 0 56C0 71.5277 3.55649 85.5621 9.28421 95.6961C15.0168 105.845 22.8667 112 31.4386 112C40.0105 112 47.8604 105.845 53.593 95.6961C59.3207 85.5621 62.8772 71.5277 62.8772 56C62.8772 40.4723 59.3207 26.4379 53.593 16.3039C47.8604 6.15509 40.0105 0 31.4386 0Z" fill="#F4F3F7"/>
<path d="M40.4232 84.6338C39.5684 83.224 38.4288 82.0942 37.0386 81.2738C35.6582 80.4584 34.0863 79.8738 32.367 79.5349C30.6575 79.1959 28.9137 79.024 27.1895 79.024H24.8218V65.8051H34.9951C36.1593 65.8051 37.0337 66.1145 37.5888 66.7188C38.1488 67.3328 38.4337 68.05 38.4337 68.8507V69.0619H39.4211V63.2998H18.4456V64.2872H18.9418C19.1874 64.2872 19.3986 64.3707 19.5853 64.5426C19.7916 64.7342 19.9782 64.97 20.1305 65.25C20.2877 65.5349 20.4154 65.8394 20.5039 66.1587C20.5923 66.478 20.6365 66.758 20.6365 66.9988V97.0373C20.6365 97.3124 20.5923 97.617 20.5039 97.9363C20.4154 98.2556 20.2877 98.5602 20.1305 98.8451C19.9733 99.1251 19.7916 99.3609 19.5853 99.5524C19.3986 99.7244 19.1874 99.8079 18.9418 99.8079H18.4456V100.795H28.8793C30.7263 100.795 32.4604 100.545 34.0225 100.053C35.5944 99.5623 36.9698 98.8402 38.1095 97.9117C39.254 96.9784 40.1481 95.8289 40.7768 94.4977C41.4056 93.1665 41.7249 91.6437 41.7249 89.9686C41.7249 87.8416 41.2877 86.0486 40.433 84.6338H40.4232ZM24.8168 81.3623H26.4625C29.9993 81.3623 32.76 82.2219 34.666 83.9216C36.567 85.6114 37.5249 87.817 37.5249 90.4745C37.5249 91.5994 37.3137 92.6556 36.8961 93.6184C36.4786 94.5714 35.8253 95.4163 34.9558 96.1187C34.0765 96.8261 32.9565 97.391 31.6154 97.7938C30.2695 98.1966 28.6533 98.403 26.8014 98.403H24.8168V81.3672V81.3623Z" fill="#ED1354"/>
<path d="M44.4414 68.0791H44.9326C46.5046 68.0791 47.2905 67.357 47.2905 65.9177C47.2905 65.3921 47.1923 64.837 46.9958 64.2475L38.1537 40.3739H20.9607L12.4133 63.8546C12.2168 64.3802 12.1186 64.8714 12.1186 65.3282C12.1186 66.1781 12.3495 66.8511 12.8063 67.3423C13.2632 67.8335 13.7544 68.0791 14.28 68.0791H14.7712V69.0616H3.86596V68.0791H4.35719C5.20702 68.0791 6.04211 67.5732 6.86246 66.5563C7.68281 65.5395 8.35088 64.3458 8.87649 62.9704L31.3747 3.04053L53.3818 62.3809C53.8386 63.6925 54.4772 64.9696 55.2975 66.2125C56.1179 67.4553 57.1789 68.0791 58.4905 68.0791H58.9818V69.0616H44.4414V68.0791ZM21.9432 37.0335H37.073L29.5081 16.5002L21.9432 37.0335Z" fill="#ED1354"/>
<path d="M43.3263 101.036C44.0887 101.036 44.7067 100.418 44.7067 99.6553C44.7067 98.8929 44.0887 98.2749 43.3263 98.2749C42.564 98.2749 41.946 98.8929 41.946 99.6553C41.946 100.418 42.564 101.036 43.3263 101.036Z" fill="#ED1354"/>
<path d="M31.4386 0.889123C39.4554 0.889123 47.0498 6.5186 52.8267 16.7411C58.7361 27.2042 61.993 41.1453 61.993 56C61.993 70.8547 58.7361 84.7958 52.8267 95.2589C47.0498 105.481 39.4554 111.111 31.4386 111.111C23.4218 111.111 15.8274 105.481 10.0505 95.2589C4.14105 84.7958 0.884211 70.8498 0.884211 56C0.884211 41.1502 4.14105 27.2042 10.0505 16.7411C15.8274 6.5186 23.4218 0.889123 31.4386 0.889123ZM31.4386 0C22.8667 0 15.0168 6.15509 9.28421 16.3039C3.55649 26.4379 0 40.4723 0 56C0 71.5277 3.55649 85.5621 9.28421 95.6961C15.0168 105.845 22.8667 112 31.4386 112C40.0105 112 47.8604 105.845 53.593 95.6961C59.3207 85.5621 62.8772 71.5277 62.8772 56C62.8772 40.4723 59.3207 26.4379 53.593 16.3039C47.8604 6.15509 40.0105 0 31.4386 0Z" fill="#ED1354"/>
</g>
<defs>
<clipPath id="clip0_3010_567">
<rect width="62.8772" height="112" fill="white"/>
</clipPath>
</defs>
</svg>
